<mxfile host="app.diagrams.net" modified="2023-08-21T15:30:11.358Z" agent="Mozilla/5.0 (Windows NT 10.0; Win64; x64) AppleWebKit/537.36 (KHTML, like Gecko) Chrome/115.0.0.0 Safari/537.36 Edg/115.0.1901.203" etag="HIBaGX2XCA7Xhjgc3bBZ" version="21.6.8" type="github">
  <diagram name="Page-1" id="egqB1EmU3A-OH_6Vp7uE">
    <mxGraphModel dx="1197" dy="890" grid="1" gridSize="10" guides="1" tooltips="1" connect="1" arrows="1" fold="1" page="1" pageScale="1" pageWidth="850" pageHeight="1100" math="0" shadow="0">
      <root>
        <mxCell id="0" />
        <mxCell id="1" parent="0" />
        <mxCell id="DKltOH15mHQ1P_oiKvYV-3" style="edgeStyle=orthogonalEdgeStyle;rounded=0;orthogonalLoop=1;jettySize=auto;html=1;entryX=0;entryY=0.5;entryDx=0;entryDy=0;" edge="1" parent="1" source="DKltOH15mHQ1P_oiKvYV-1" target="DKltOH15mHQ1P_oiKvYV-2">
          <mxGeometry relative="1" as="geometry" />
        </mxCell>
        <mxCell id="DKltOH15mHQ1P_oiKvYV-1" value="&lt;font style=&quot;font-size: 24px;&quot;&gt;Altova&lt;/font&gt;" style="whiteSpace=wrap;html=1;aspect=fixed;" vertex="1" parent="1">
          <mxGeometry x="300" y="300" width="110" height="110" as="geometry" />
        </mxCell>
        <mxCell id="DKltOH15mHQ1P_oiKvYV-2" value="&lt;font style=&quot;font-size: 24px;&quot;&gt;ECM&lt;/font&gt;" style="whiteSpace=wrap;html=1;aspect=fixed;" vertex="1" parent="1">
          <mxGeometry x="480" y="300" width="110" height="110" as="geometry" />
        </mxCell>
        <mxCell id="DKltOH15mHQ1P_oiKvYV-4" value="&lt;font style=&quot;font-size: 24px;&quot;&gt;BPCS&lt;/font&gt;" style="whiteSpace=wrap;html=1;aspect=fixed;" vertex="1" parent="1">
          <mxGeometry x="580" y="270" width="160" height="160" as="geometry" />
        </mxCell>
        <mxCell id="DKltOH15mHQ1P_oiKvYV-10" style="edgeStyle=orthogonalEdgeStyle;rounded=0;orthogonalLoop=1;jettySize=auto;html=1;entryX=0;entryY=0.5;entryDx=0;entryDy=0;" edge="1" parent="1" source="DKltOH15mHQ1P_oiKvYV-5" target="DKltOH15mHQ1P_oiKvYV-9">
          <mxGeometry relative="1" as="geometry" />
        </mxCell>
        <mxCell id="DKltOH15mHQ1P_oiKvYV-5" value="&lt;font style=&quot;font-size: 24px;&quot;&gt;ECOM&lt;/font&gt;" style="whiteSpace=wrap;html=1;aspect=fixed;" vertex="1" parent="1">
          <mxGeometry x="90" y="40" width="150" height="150" as="geometry" />
        </mxCell>
        <mxCell id="DKltOH15mHQ1P_oiKvYV-7" value="&lt;font style=&quot;font-size: 24px;&quot;&gt;API&lt;/font&gt;" style="whiteSpace=wrap;html=1;aspect=fixed;" vertex="1" parent="1">
          <mxGeometry x="10" y="130" width="100" height="100" as="geometry" />
        </mxCell>
        <mxCell id="DKltOH15mHQ1P_oiKvYV-8" value="&lt;font style=&quot;font-size: 24px;&quot;&gt;Web Page&lt;/font&gt;" style="whiteSpace=wrap;html=1;aspect=fixed;" vertex="1" parent="1">
          <mxGeometry x="10" y="10" width="100" height="100" as="geometry" />
        </mxCell>
        <mxCell id="DKltOH15mHQ1P_oiKvYV-11" style="edgeStyle=orthogonalEdgeStyle;rounded=0;orthogonalLoop=1;jettySize=auto;html=1;entryX=0.364;entryY=0;entryDx=0;entryDy=0;entryPerimeter=0;" edge="1" parent="1" source="DKltOH15mHQ1P_oiKvYV-9" target="DKltOH15mHQ1P_oiKvYV-1">
          <mxGeometry relative="1" as="geometry" />
        </mxCell>
        <mxCell id="DKltOH15mHQ1P_oiKvYV-9" value="&lt;font style=&quot;font-size: 24px;&quot;&gt;iHUB&lt;/font&gt;" style="whiteSpace=wrap;html=1;aspect=fixed;" vertex="1" parent="1">
          <mxGeometry x="290" y="65" width="100" height="100" as="geometry" />
        </mxCell>
        <mxCell id="DKltOH15mHQ1P_oiKvYV-12" value="&lt;font style=&quot;font-size: 24px;&quot;&gt;Ecomm Dashboard&lt;/font&gt;" style="whiteSpace=wrap;html=1;aspect=fixed;" vertex="1" parent="1">
          <mxGeometry x="131" y="180" width="139" height="139" as="geometry" />
        </mxCell>
      </root>
    </mxGraphModel>
  </diagram>
</mxfile>
